:SAMPLES-PER-SECOND 30
:FULLY-SPECIFIED
:DEGREES
320
root  16.2483 24.646 -32.9142 86.4047 76.1524 62.0106
RightUpLeg  -70.4336 1.06654 -4.08621
RightLeg  92.8028 0.140403 1.44628
RightFoot  -37.7923 -0.243221 -0.332995
RightToes  -5.0047 -0.0145048 -0.0467506
Spine  28.2217 -0.115408 5.74361
Spine1  48.2079 1.29769 5.01205
HEad  -20.921 -19.9509 30.692
LeftShoulder1  0 -2.42657e-020 -4.95415e-022
LeftArm  -30.3051 -40.231 -61.7497
LeftForeArm  16.892 -31.5354 -6.20561
LeftHand  0.00354144 -6.6684 -0.431189
RightShoulder  0 2.42657e-020 1.07489e-018
RightArm  -60.7944 43.4321 48.4376
RightForeArm  65.9611 51.3333 12.6921
RightHand  -6.96505 14.4245 -51.0159
LeftUpLeg  -89.3132 -7.62304 4.49844
LeftLeg  100.368 -0.288764 2.52018
LeftFoot  -19.4552 -0.0930077 -0.542549
LeftToes  -14.8817 2.01279e-006 2.21547e-008
321
root  18.8861 25.2057 -33.1479 77.9807 73.2262 51.9546
RightUpLeg  -65.0841 4.67083 -7.6777
RightLeg  90.0875 0.0978565 -0.226615
RightFoot  -41.0181 0.125685 0.713559
RightToes  -7.43696 -0.0230148 -0.0689715
Spine  27.0287 0.695959 4.90285
Spine1  46.9332 5.40394 2.3521
HEad  -20.9035 -18.8923 30.3394
LeftShoulder1  0 -2.42657e-020 -4.95415e-022
LeftArm  -27.3735 -36.2572 -65.6531
LeftForeArm  15.2776 -33.5296 -6.70388
LeftHand  0.0133095 -6.89477 -0.591478
RightShoulder  0 2.42657e-020 1.07489e-018
RightArm  -60.6521 43.3673 47.1929
RightForeArm  68.1153 51.3243 12.68
RightHand  -6.95222 13.7851 -53.0113
LeftUpLeg  -93.8166 -6.01565 5.98357
LeftLeg  82.4676 0.292649 1.44095
LeftFoot  -18.0845 -0.0417913 -0.262615
LeftToes  -17.1506 2.01279e-006 2.21547e-008
322
root  21.3985 25.3957 -32.9811 72.0699 76.3012 43.5382
RightUpLeg  -60.3281 8.71177 -5.12082
RightLeg  87.2395 -0.241276 -3.07101
RightFoot  -41.9498 0.658172 2.09432
RightToes  -10.7712 -0.0361975 -0.0988062
Spine  25.7952 2.00543 8.06332
Spine1  47.0309 10.1296 4.05017
HEad  -22.3561 -17.8035 30.2749
LeftShoulder1  0 -2.42657e-020 -4.95415e-022
LeftArm  -23.5394 -34.8757 -72.565
LeftForeArm  14.4613 -34.2651 -6.89346
LeftHand  0.0287975 -6.51444 -0.876891
RightShoulder  0 2.42657e-020 1.07489e-018
RightArm  -68.4219 44.2484 38.5396
RightForeArm  70.8642 43.7907 9.65994
RightHand  -7.51338 16.6744 -47.9158
LeftUpLeg  -96.9087 -4.42268 12.1192
LeftLeg  64.2388 0.218026 0.373866
LeftFoot  -14.6552 -0.0581037 -0.451849
LeftToes  -17.4747 2.01279e-006 2.21547e-008
323
root  24.0727 25.1638 -32.7463 62.8405 81.78 32.6062
RightUpLeg  -54.7168 10.1316 1.22386
RightLeg  85.65 -0.733708 -5.90271
RightFoot  -41.2616 1.1202 3.35242
RightToes  -16.1907 -0.0612567 -0.145511
Spine  24.366 3.26234 12.3463
Spine1  48.1451 13.5754 8.26757
HEad  -22.2918 -17.9097 31.6745
LeftShoulder1  0 -2.42657e-020 -4.95415e-022
LeftArm  -18.7768 -34.3645 -80.1033
LeftForeArm  14.6787 -33.4185 -6.67517
LeftHand  0.0683174 -6.9124 -1.50259
RightShoulder  0 2.42657e-020 1.07489e-018
RightArm  -79.0387 44.9502 28.0918
RightForeArm  75.8731 30.4621 5.85687
RightHand  -8.35014 16.7847 -52.2995
LeftUpLeg  -98.8778 -4.40129 17.8176
LeftLeg  54.4531 -2.92624 -3.58667
LeftFoot  -11.1678 0.0130541 0.133513
LeftToes  -25.4087 2.01279e-006 2.21547e-008
324
root  27.3936 24.8846 -32.9058 58.0729 79.4124 30.5576
RightUpLeg  -46.1662 11.3445 0.686318
RightLeg  87.5014 -0.821889 -8.50216
RightFoot  -37.497 1.50317 4.80428
RightToes  -27.3989 -0.126426 -0.233487
Spine  24.0459 3.01698 11.4269
Spine1  47.4736 13.8511 6.98785
HEad  -19.4567 -19.142 32.9612
LeftShoulder1  0 -2.42657e-020 -4.95415e-022
LeftArm  -18.2186 -31.5844 -82.6898
LeftForeArm  17.7961 -33.0005 -6.57028
LeftHand  0.025867 -7.22798 -0.780246
RightShoulder  0 2.42657e-020 1.07489e-018
RightArm  -80.5537 45.4517 29.6841
RightForeArm  64.3122 25.1884 4.6949
RightHand  -5.80021 19.6842 -32.1964
LeftUpLeg  -93.0215 -5.71087 13.773
LeftLeg  54.5418 -4.2318 -5.18954
LeftFoot  -8.52105 0.0333811 0.448072
LeftToes  -28.7202 2.01279e-006 2.21547e-008
325
root  31.1598 24.6177 -33.4336 60.2795 72.1737 38.0697
RightUpLeg  -37.7816 10.7731 -5.66967
RightLeg  93.1681 0.031167 -9.61529
RightFoot  -30.0491 1.36862 5.47358
RightToes  -32.2819 -0.159946 -0.267508
Spine  24.1733 1.656 7.51802
Spine1  45.1193 13.088 0.406369
HEad  -14.6285 -19.9078 33.9835
LeftShoulder1  0 -2.42657e-020 -4.95415e-022
LeftArm  -20.4371 -27.6709 -81.0756
LeftForeArm  17.7325 -33.5256 -6.70388
LeftHand  -0.0137481 -6.93676 -0.143266
RightShoulder  0 2.42657e-020 1.07489e-018
RightArm  -79.6945 46.7487 41.401
RightForeArm  46.6254 19.3362 3.52296
RightHand  -4.00134 16.6384 -26.5113
LeftUpLeg  -84.5243 -7.90493 6.73391
LeftLeg  58.7686 -4.10105 -5.8604
LeftFoot  1.32363 0.000813277 -0.0704147
LeftToes  -48.3634 2.01279e-006 2.21547e-008
326
root  34.5653 24.6257 -33.2077 60.0609 66.2226 43.0783
RightUpLeg  -32.8007 10.6464 -9.52308
RightLeg  100.061 1.35643 -10.7914
RightFoot  -22.9957 1.09801 5.77184
RightToes  -9.12252 -0.029462 -0.0841496
Spine  24.7518 0.278321 3.3335
Spine1  43.6013 9.84731 -3.74888
HEad  -14.4959 -19.8892 37.2782
LeftShoulder1  0 -2.42657e-020 -4.95415e-022
LeftArm  -21.2083 -26.5239 -76.9965
LeftForeArm  15.8392 -34.5567 -6.97048
LeftHand  -0.00126834 -6.25804 -0.34713
RightShoulder  0 2.42657e-020 1.07489e-018
RightArm  -73.505 44.2031 57.4709
RightForeArm  41.8472 23.4987 4.37878
RightHand  -4.15306 14.4358 -31.5956
LeftUpLeg  -77.4927 -6.52393 -2.74719
LeftLeg  66.4219 -5.05978 -9.72642
LeftFoot  2.53912 -0.00745945 0.336584
LeftToes  -48.8748 2.01279e-006 2.21547e-008
327
root  37.5585 24.8597 -32.8567 56.4315 64.0146 42.7312
RightUpLeg  -32.6509 7.75021 -10.2609
RightLeg  104.344 0.613204 -2.47371
RightFoot  -22.865 0.423426 2.47123
RightToes  -21.6097 -0.0906126 -0.189637
Spine  24.9906 -0.611891 1.5042
Spine1  43.3253 5.42966 -2.51167
HEad  -14.759 -20.7564 38.0415
LeftShoulder1  0 -2.42657e-020 -4.95415e-022
LeftArm  -20.5994 -28.0631 -75.7321
LeftForeArm  19.3249 -34.6047 -6.98432
LeftHand  -0.0617823 -7.34943 0.592567
RightShoulder  0 2.42657e-020 1.07489e-018
RightArm  -59.8069 37.1575 65.9256
RightForeArm  40.9137 33.1072 6.58921
RightHand  -4.63344 14.3829 -35.1997
LeftUpLeg  -71.0395 -5.42235 -6.6899
LeftLeg  71.5231 -3.99912 -9.73429
LeftFoot  -4.13928 0.0596529 1.65059
LeftToes  -48.9371 2.01279e-006 2.21547e-008
328
root  39.9276 25.5047 -32.2701 51.529 62.5483 38.0467
RightUpLeg  -39.6212 4.42515 -8.66434
RightLeg  105.42 0.0542306 0.46275
RightFoot  -21.7545 0.123113 1.01826
RightToes  -29.5246 -0.140661 -0.248648
Spine  24.1267 -1.15457 0.887035
Spine1  41.5637 1.55771 -0.323181
HEad  -14.1655 -19.992 36.3823
LeftShoulder1  0 -2.42657e-020 -4.95415e-022
LeftArm  -20.6474 -28.0907 -75.401
LeftForeArm  23.0621 -35.2223 -7.14837
LeftHand  -0.162343 -7.36191 2.15513
RightShoulder  0 2.42657e-020 1.07489e-018
RightArm  -51.3421 31.157 73.2287
RightForeArm  50.7616 41.4164 8.92875
RightHand  -5.01549 13.4802 -40.3154
LeftUpLeg  -66.1258 -4.4808 -6.65381
LeftLeg  73.0035 -3.47524 -9.14206
LeftFoot  -8.6759 0.16869 2.22351
LeftToes  -49.4734 2.01279e-006 2.21547e-008
329
root  42.0675 26.4408 -31.5103 46.2338 60.4161 32.2537
RightUpLeg  -48.416 1.79468 -6.17287
RightLeg  101.963 0.512448 -2.55318
RightFoot  -21.928 0.253275 1.68492
RightToes  -26.0126 -0.117449 -0.22332
Spine  23.5542 -1.52984 0.45115
Spine1  40.48 -1.24178 0.493556
HEad  -12.7718 -18.5739 33.8581
LeftShoulder1  0 -2.42657e-020 -4.95415e-022
LeftArm  -22.1483 -28.1676 -74.299
LeftForeArm  20.3647 -36.6902 -7.54782
LeftHand  -0.16727 -7.02559 2.35672
RightShoulder  0 2.42657e-020 1.07489e-018
RightArm  -44.4293 27.5211 81.0383
RightForeArm  54.6306 47.9131 11.2444
RightHand  -4.93125 11.986 -44.2554
LeftUpLeg  -61.0043 -2.42246 -6.46429
LeftLeg  72.6698 -3.16701 -8.20271
LeftFoot  -10.7323 0.209346 2.22841
LeftToes  -49.8496 2.01279e-006 2.21547e-008
330
root  44.0698 27.4145 -30.6447 40.7925 57.7242 25.7845
RightUpLeg  -56.9978 0.94498 -2.86103
RightLeg  93.8274 0.132188 -4.72404
RightFoot  -21.3205 0.296301 1.95163
RightToes  -23.7368 -0.103255 -0.206167
Spine  23.0915 -1.43795 0.426304
Spine1  39.5772 -3.30152 2.20794
HEad  -11.7399 -17.8207 32.3267
LeftShoulder1  0 -2.42657e-020 -4.95415e-022
LeftArm  -23.2507 -28.5999 -74.8458
LeftForeArm  22.2029 -37.525 -7.78239
LeftHand  -0.184069 -7.51376 2.43493
RightShoulder  0 2.42657e-020 1.07489e-018
RightArm  -37.8065 23.6577 85.7997
RightForeArm  61.0125 52.8017 13.4178
RightHand  -5.6541 12.4686 -48.3021
LeftUpLeg  -56.6961 0.606682 -6.13369
LeftLeg  72.3941 -2.66953 -6.83418
LeftFoot  -10.7425 0.164806 1.75271
LeftToes  -49.3211 2.01279e-006 2.21547e-008
331
root  46.1872 28.187 -29.824 36.6489 55.0934 20.8355
RightUpLeg  -63.2709 0.468491 0.141618
RightLeg  82.215 -0.728637 -4.05646
RightFoot  -19.1005 0.137874 1.19707
RightToes  -22.9765 -0.0986655 -0.200313
Spine  22.6223 -1.01613 0.973146
Spine1  38.4675 -4.76554 5.2996
HEad  -11.8186 -18.4854 32.1152
LeftShoulder1  0 -2.42657e-020 -4.95415e-022
LeftArm  -21.5047 -29.695 -77.9657
LeftForeArm  25.3518 -36.9052 -7.60769
LeftHand  -0.254209 -8.20354 3.17647
RightShoulder  0 2.42657e-020 1.07489e-018
RightArm  -34.1175 20.3559 86.8312
RightForeArm  70.3406 54.1769 14.0949
RightHand  -6.17226 11.5295 -55.8658
LeftUpLeg  -52.1923 2.13396 -5.73233
LeftLeg  71.9768 -2.04068 -5.12937
LeftFoot  -10.6587 0.104096 1.11586
LeftToes  -48.8564 2.01279e-006 2.21547e-008
332
root  48.5302 28.6188 -29.0574 34.567 52.1511 19.3698
RightUpLeg  -66.8548 -0.927602 2.06252
RightLeg  69.0267 -1.51215 -3.44711
RightFoot  -14.4737 0.0146461 0.492912
RightToes  -24.4664 -0.107731 -0.211727
Spine  22.4104 -0.692577 1.57122
Spine1  37.7258 -5.95012 8.07387
HEad  -12.0712 -19.7343 32.4632
LeftShoulder1  0 -2.42657e-020 -4.95415e-022
LeftArm  -18.8977 -31.1515 -82.9414
LeftForeArm  26.0466 -35.4515 -7.20939
LeftHand  -0.219437 -8.16226 2.70711
RightShoulder  0 2.42657e-020 1.07489e-018
RightArm  -33.1973 19.225 85.8895
RightForeArm  79.017 53.0606 13.4772
RightHand  -6.59501 10.4125 -64.2751
LeftUpLeg  -46.1373 2.42438 -7.33422
LeftLeg  70.9204 -1.12215 -2.68898
LeftFoot  -11.9155 0.0537237 0.514786
LeftToes  -45.0733 2.01279e-006 2.21547e-008
333
root  50.923 28.581 -28.1875 33.1927 49.2391 18.7732
RightUpLeg  -69.446 -2.44411 5.12188
RightLeg  56.3776 -3.46743 -4.6063
RightFoot  -3.68185 -0.030645 -0.575986
RightToes  -20.305 -0.0831656 -0.17927
Spine  21.9524 -0.145294 2.36128
Spine1  36.7453 -5.82699 9.83495
HEad  -12.9119 -20.9125 33.5376
LeftShoulder1  0 -2.42657e-020 -4.95415e-022
LeftArm  -15.3169 -31.0079 -88.1742
LeftForeArm  25.8118 -35.5418 -7.23373
LeftHand  -0.218101 -8.21586 2.66836
RightShoulder  0 2.42657e-020 1.07489e-018
RightArm  -34.7926 19.4726 83.3766
RightForeArm  87.7376 49.2054 11.6559
RightHand  -6.76227 9.71894 -69.2583
LeftUpLeg  -40.6774 3.9333 -9.39275
LeftLeg  71.1342 -0.773659 -1.87941
LeftFoot  -13.1861 0.0294607 0.254884
LeftToes  -43.2141 2.01279e-006 2.21547e-008
334
root  53.4868 27.9947 -27.2288 32.0396 47.2899 20.1543
RightUpLeg  -71.1438 -6.67609 10.2077
RightLeg  49.7923 -6.92913 -7.18888
RightFoot  5.27127 0.138458 -2.62923
RightToes  -14.0768 -0.0509575 -0.127577
Spine  21.8521 0.0898224 3.33615
Spine1  36.6862 -5.41777 9.83572
HEad  -13.172 -22.0618 35.5865
LeftShoulder1  0 -2.42657e-020 -4.95415e-022
LeftArm  -11.0857 -30.0582 -92.3039
LeftForeArm  28.1706 -37.1399 -7.67263
LeftHand  -0.356936 -8.2753 4.56487
RightShoulder  0 2.42657e-020 1.07489e-018
RightArm  -39.2207 23.2939 80.3625
RightForeArm  90.6529 39.5489 8.22201
RightHand  -7.79145 11.8534 -66.1872
LeftUpLeg  -35.3502 3.55815 -11.5111
LeftLeg  74.4539 -0.938622 -2.70889
LeftFoot  -12.3194 0.0330031 0.305792
LeftToes  -46.4172 2.01279e-006 2.21547e-008
